<?xml version="1.0" encoding="UTF-8"?><svg id="Layer_2" xmlns="http://www.w3.org/2000/svg" viewBox="0 0 60.29 55.43"><defs><style>.cls-1{fill:#fff;}</style></defs><g id="Layer_1-2"><g id="logo_lightbulb_lightbulblogo-2"><path class="cls-1" d="M60.22,28.78c-.11-.21-.32-.33-.55-.33h-10.88l-.14-.06-17.91-7.13c-2.57-1.01-5.35-1.22-8.03-.6l-1.01,.23V7.87c0-4.34-3.54-7.87-7.88-7.87h-.88c-2.65,0-5.01,1.7-5.86,4.22l-.04,.12-.08,.1c-1.77,2.48-4.74,3.41-5.94,3.7-.73,.17-1.12,.88-1,1.62,.11,.67,.67,1.16,1.4,1.16H12.27v7.22l-.33,.24c-3.26,2.45-5.2,6.35-5.2,10.42v.52c0,7.03,5.24,13.12,12.19,14.15,.74,.11,1.43,.15,2.11,.15h6.74v5.8l-9.49,4.84c-.15,.07-.26,.2-.31,.36-.04,.11-.06,.29,.05,.5,.1,.19,.34,.31,.59,.31h9.78c.35,0,.62-.28,.62-.62v-11.18h5.79c1.32,0,2.57-.41,3.64-1.18l2.67-1.93h3.81c1.53,0,3-.56,4.14-1.58l3.95-3.74,.52-.03c1.9-.16,3.6-1.16,4.66-2.76l1.98-3c.13-.19,.14-.43,.04-.63ZM27.78,54.19h-6.61l6.61-3.37v3.37ZM2.32,9.78c-.56,0-1.06,.12-1.01-.43,.03-.37,.44-.35,.62-.39,.17-.05,2.06-.45,3.52-1.51l1.21-.9,.1,.49c.14,.78,.7,1.58,1.1,2.09l.42,.51-5.96,.14Zm11.59,30.47c-3.71-2.42-5.92-6.51-5.92-10.93v-.52c0-1.97,.49-3.87,1.39-5.56,.9-1.68,2.22-3.15,3.86-4.24,.18-.12,.27-.32,.27-.52v-7.63c0-.81-.65-1.46-1.45-1.46h-.89c-1.71,0-3.14-1.38-3.18-3.06-.03-1.35,.47-2.63,1.41-3.59s2.2-1.5,3.54-1.5h.88c3.66,0,6.63,2.98,6.63,6.64v13.69l-.41,.24c-4.06,2.34-6.48,6.53-6.48,11.22,0,2.15,.53,4.27,1.54,6.14l1.55,2.87-2.74-1.79Zm38.83-6.26c-.34,.06-1.18,.44-1.83,1.34-.42,.61-.89,1.04-1.34,1.04s-.67-.28-1.11-.91c-.28-.62-.73-1.08-1.31-1.33-1.24-.53-2.68,.05-3.21,1.28-.44,.65-.73,.96-1.13,.96s-.63-.28-1.06-.91c-.27-.62-.73-1.08-1.31-1.33-.6-.25-1.26-.26-1.87-.02-.6,.24-1.08,.7-1.34,1.3-.38,.62-.62,.96-1.08,.96-.43,0-.67-.28-1.11-.91-.46-.88-1.32-1.46-2.28-1.52-.38,0-.7,.32-.7,.71s.32,.71,.71,.71,.63,.28,1.07,.91c.27,.62,.72,1.08,1.3,1.33,1.24,.53,2.68-.05,3.21-1.28,.43-.71,.75-.97,1.18-.97s.66,.28,1.1,.91c.27,.61,.72,1.06,1.29,1.31,1.23,.54,2.68-.03,3.22-1.27,.44-.64,.68-.95,1.13-.95s.69,.31,1.11,.91c.31,.59,.8,1.04,1.37,1.3l-.51,.45c-.91,.82-2.08,1.26-3.31,1.26h-4.01c-.13,0-.26,.05-.36,.12l-2.84,2.05c-.84,.62-1.85,.94-2.91,.94h-13.76c-.48,0-.97-.02-1.5-.08l-.24-.03-.19-.15c-2.74-2.24-4.32-5.55-4.32-9.09,0-4.52,2.53-8.56,6.6-10.54,.05-.02,.1-.06,.16-.12l.13-.12,.17-.06c2.74-.92,5.72-.83,8.41,.24l18.18,7.22c.07,.03,.15,.04,.23,.04h9.83l-1.35,2.03c-.91,1.38-2.43,2.21-4.07,2.23,0,0-.08,0-.35,.04Z"/></g></g></svg>
